<svg width="645" height="283" viewBox="0 0 645 283" fill="none" xmlns="http://www.w3.org/2000/svg">
<g clip-path="url(#clip0_0_3)">
<path fill-rule="evenodd" clip-rule="evenodd" d="M29.7516 136.41V126.959C25.5699 125.542 20.459 124.124 16.2774 124.124C11.6311 123.652 7.91414 125.542 4.19711 127.904C1.87398 130.267 0.0154714 133.575 0.0154714 137.355C0.0154714 137.355 -0.913781 147.279 11.6311 149.641C11.6311 149.641 13.025 149.641 15.3482 150.114C16.2774 150.114 17.2066 150.587 18.1359 151.059C18.6005 151.532 19.0652 152.477 19.0652 152.949C19.0652 153.894 18.6005 154.367 18.1359 154.84C17.2066 156.73 14.4189 157.202 12.5604 157.202C9.77262 157.202 7.44949 156.73 5.12637 156.257C5.12637 156.257 3.26786 155.784 1.87398 155.312V164.763C6.05563 165.708 11.1665 166.181 15.3482 166.181C19.5298 166.181 23.7114 165.235 26.9638 162.873C29.287 160.983 30.6808 158.62 31.6101 155.784C32.0747 152.477 31.6101 149.169 30.2162 146.333C27.893 143.498 24.6407 142.081 20.9237 140.663C19.9944 140.19 18.6005 140.19 17.6713 140.19H15.8128C13.9543 140.19 12.5604 139.246 12.0957 137.828C12.0957 136.41 12.5604 134.993 13.9543 134.047C16.2774 133.575 18.6005 133.575 21.3883 134.047C23.2468 134.047 26.9638 135.465 29.7516 136.41Z" fill="#C12F98"/>
<path fill-rule="evenodd" clip-rule="evenodd" d="M33.4685 165.708V126.959L44.1551 125.069V146.334C46.4782 143.498 48.3367 139.718 50.195 135.938H62.2754C60.8817 141.608 58.0938 146.334 54.8414 150.114C57.6289 154.84 60.4168 160.038 61.8106 165.708H49.2657C48.3367 161.928 46.9426 157.675 44.6196 153.894V165.708H33.4685Z" fill="#C12F98"/>
<path fill-rule="evenodd" clip-rule="evenodd" d="M74.8203 165.708V150.587C74.8203 148.697 75.2852 147.279 76.2141 145.861C77.6082 144.916 79.002 144.444 80.3957 144.444H81.325V135.465H79.4664C76.6789 135.465 73.4266 135.938 71.1035 136.883C69.2449 137.828 67.3863 139.246 66.457 141.136C65.0633 143.026 64.5984 144.916 64.5984 147.279V165.708H74.8203Z" fill="#C12F98"/>
<path d="M94.7992 135.938H84.5774V165.708H94.7992V135.938Z" fill="#C12F98"/>
<path d="M89.6883 132.63C92.2543 132.63 94.3348 130.514 94.3348 127.904C94.3348 125.295 92.2543 123.179 89.6883 123.179C87.1223 123.179 85.0422 125.295 85.0422 127.904C85.0422 130.514 87.1223 132.63 89.6883 132.63Z" fill="#C12F98"/>
<path fill-rule="evenodd" clip-rule="evenodd" d="M109.667 165.708V125.069L99.4453 126.959V165.708H109.667Z" fill="#C12F98"/>
<path fill-rule="evenodd" clip-rule="evenodd" d="M125 165.708V125.069L114.778 126.959V165.708H125Z" fill="#C12F98"/>
<path d="M430.254 126.018H413.727L408.058 156.349H388.698L389.642 149.24H401.448L402.865 141.658H391.059L392.476 135.022H404.754L406.171 126.492H381.615L376.42 154.453H367.448L372.642 126.492H360.364L354.697 154.927H346.197L351.392 126.492H338.641L332.975 156.823H313.613L314.558 150.188H326.363L327.78 142.605H315.974L317.391 135.496H329.669L331.086 126.966H255.529L250.806 150.662L242.306 126.966H229.084L222 165.827H234.75L239 141.184L247.5 165.827H292.835L298.502 135.496H305.585L299.918 165.827H419.393L423.17 146.871H423.644L429.31 165.353H442.059L435.92 149.24C441.589 148.766 445.836 144.027 446.31 138.814V136.918C445.836 125.07 430.254 126.018 430.254 126.018ZM281.973 155.875H262.612L263.556 149.24H275.834L277.251 141.658H264.973L265.917 135.022H285.279L281.973 155.875ZM433.087 139.288C432.617 142.131 429.31 144.501 426.477 144.027H422.7L424.588 133.601H426.947C426.947 133.601 432.617 133.601 432.617 138.34V139.288H433.087Z" fill="#8CC63E"/>
<path fill-rule="evenodd" clip-rule="evenodd" d="M629.893 161.159C629.893 167.165 624.955 172.056 618.887 172.056H559V128.897C559 122.891 563.941 118 570.006 118H629.893V161.159Z" fill="white"/>
<path fill-rule="evenodd" clip-rule="evenodd" d="M610.393 150.091H614.943C615.074 150.091 615.379 150.048 615.509 150.048C616.373 149.876 617.11 149.104 617.11 148.031C617.11 147.001 616.373 146.229 615.509 146.015C615.379 145.972 615.118 145.972 614.943 145.972H610.393V150.091Z" fill="url(#paint0_linear_0_3)"/>
<path fill-rule="evenodd" clip-rule="evenodd" d="M614.426 121.647C610.092 121.647 606.536 125.121 606.536 129.454V137.563H617.673C617.933 137.563 618.238 137.563 618.454 137.606C620.968 137.735 622.83 139.022 622.83 141.253C622.83 143.011 621.575 144.513 619.233 144.813V144.899C621.791 145.071 623.742 146.487 623.742 148.675C623.742 151.034 621.575 152.579 618.715 152.579H606.495V168.452H618.064C622.397 168.452 625.95 164.977 625.95 160.644V121.647H614.426Z" fill="url(#paint1_linear_0_3)"/>
<path fill-rule="evenodd" clip-rule="evenodd" d="M616.548 141.768C616.548 140.738 615.811 140.051 614.943 139.923C614.858 139.923 614.642 139.88 614.511 139.88H610.393V143.655H614.511C614.642 143.655 614.902 143.655 614.943 143.612C615.811 143.484 616.548 142.797 616.548 141.768Z" fill="url(#paint2_linear_0_3)"/>
<path fill-rule="evenodd" clip-rule="evenodd" d="M570.829 121.647C566.495 121.647 562.943 125.121 562.943 129.454V148.718C565.155 149.79 567.452 150.477 569.746 150.477C572.478 150.477 573.949 148.846 573.949 146.615V137.52H580.711V146.572C580.711 150.09 578.499 152.965 571.004 152.965C566.454 152.965 562.899 151.978 562.899 151.978V168.409H574.47C578.804 168.409 582.357 164.934 582.357 160.601V121.647H570.829Z" fill="url(#paint3_linear_0_3)"/>
<path fill-rule="evenodd" clip-rule="evenodd" d="M592.626 121.647C588.295 121.647 584.74 125.121 584.74 129.454V139.665C586.735 137.992 590.201 136.92 595.79 137.177C598.78 137.306 601.986 138.121 601.986 138.121V141.424C600.385 140.609 598.478 139.88 596.006 139.708C591.762 139.408 589.204 141.467 589.204 145.071C589.204 148.718 591.762 150.777 596.006 150.434C598.478 150.262 600.385 149.49 601.986 148.718V152.021C601.986 152.021 598.825 152.836 595.79 152.965C590.201 153.222 586.735 152.15 584.74 150.477V168.495H596.311C600.645 168.495 604.198 165.02 604.198 160.687V121.647H592.626Z" fill="url(#paint4_linear_0_3)"/>
<path d="M574.053 75.7047V70.8273C574.053 70.1303 573.7 69.0851 572.989 68.3884C572.28 67.6914 571.572 67.3432 570.86 67.3432C569.799 67.3432 568.734 67.6914 568.023 68.7366C567.314 67.6914 566.25 67.3432 565.185 67.3432C564.121 67.3432 563.412 67.6914 562.704 68.3884V67.3432H560.928V75.3565H562.704V70.8273C562.704 70.1303 562.704 69.7821 563.056 69.4336C563.412 69.0851 564.121 68.7366 564.477 68.7366C565.541 68.7366 566.25 69.4336 566.25 70.8273V75.3565H568.023V70.8273C568.023 70.1303 568.023 69.7821 568.378 69.4336C568.734 69.0851 569.443 68.7366 569.799 68.7366C570.86 68.7366 571.572 69.4336 571.572 70.8273V75.3565L574.053 75.7047ZM584.341 71.524V67.6914H582.568V68.7366C581.857 68.0399 580.795 67.6914 580.084 67.6914C577.602 67.6914 575.826 69.4336 575.826 71.8725C575.826 74.3114 577.955 76.0532 580.084 76.0532C581.148 76.0532 582.213 75.7047 582.568 75.008V76.0532H584.341V71.524ZM577.602 71.524C577.602 70.1303 578.667 69.0851 580.084 69.4336C581.504 69.4336 582.568 70.4788 582.568 71.8725C582.568 73.2662 581.504 74.3114 580.084 74.3114C579.375 74.3114 578.667 73.9629 578.311 73.6143C577.602 72.9177 577.246 72.2207 577.602 71.524ZM623.006 67.3432C623.715 67.3432 624.071 67.3432 624.779 67.6914C625.491 68.0399 625.844 68.0399 626.2 68.7366C626.556 69.0851 626.908 69.4336 627.264 70.1303C627.617 71.1755 627.617 72.2207 627.264 73.6143C626.908 73.9629 626.556 74.6595 626.2 75.008C625.844 75.3565 625.135 75.7047 624.779 76.0532C623.715 76.4017 622.298 76.4017 621.233 76.0532C620.878 75.7047 620.169 75.7047 619.813 75.008C619.461 74.6595 619.105 74.3114 618.749 73.6143C618.396 72.5692 618.396 71.524 618.749 70.1303C619.105 69.7821 619.461 69.0851 619.813 68.7366C620.169 68.3884 620.525 68.0399 621.233 67.6914C621.589 67.3432 622.298 67.3432 623.006 67.3432ZM623.006 69.0851C622.651 69.0851 622.298 69.0851 621.942 69.4336C621.589 69.4336 621.233 69.7821 621.233 70.1303C620.878 70.4788 620.878 70.8273 620.525 70.8273C620.169 71.524 620.169 72.2206 620.525 72.9177C620.525 73.2662 620.878 73.6143 621.233 73.6143C621.589 73.9629 621.589 73.9629 621.942 74.3114C622.651 74.6595 623.362 74.6595 624.071 74.3114C624.427 74.3114 624.779 73.9629 624.779 73.6143C625.135 73.2662 625.135 73.2662 625.491 72.9177C625.844 72.2206 625.844 71.524 625.491 70.8273C625.491 70.4788 625.135 70.1303 624.779 70.1303C624.427 69.7821 624.071 69.7821 624.071 69.4336C623.715 69.0851 623.362 69.0851 623.006 69.0851ZM593.918 71.524C593.918 69.0851 592.145 67.3432 590.016 67.3432C587.535 67.3432 585.762 69.4336 585.762 71.524C585.762 73.6143 587.887 75.7047 590.016 75.7047C591.081 75.7047 592.501 75.3565 593.565 74.6595L592.853 73.2662C592.145 73.9628 591.436 73.9629 590.372 73.9629C588.952 73.9629 587.887 73.2662 587.887 71.8725H593.918C593.918 71.8725 593.918 71.8725 593.918 71.524ZM587.887 70.8273C587.887 69.7821 588.952 68.7366 590.016 68.7366C590.728 68.7366 591.081 69.0851 591.436 69.4336C591.789 69.7821 592.145 70.1303 592.145 70.8273H587.887ZM601.721 69.7821C601.013 69.4336 599.949 69.0851 599.24 69.0851C598.176 69.0851 597.82 69.4336 597.82 70.1303C597.82 70.8273 598.531 70.8273 599.24 70.8273H599.948C601.721 71.1755 602.786 71.8725 602.786 73.2662C602.786 74.6595 601.369 75.7047 598.884 75.7047C597.467 75.7047 596.403 75.3565 595.338 74.6595L596.047 73.2662C596.755 73.9628 597.82 73.9629 598.884 73.9629C599.948 73.9629 600.66 73.6143 600.66 72.9177C600.66 72.5692 600.304 72.2206 599.24 72.2206H598.531C596.755 71.8725 595.694 71.1755 595.694 69.7821C595.694 68.0399 597.111 67.3432 599.24 67.3432C600.304 67.3432 601.721 67.6914 602.786 68.0399L601.721 69.7821ZM610.237 69.0851H607.399V72.5692C607.399 73.2662 607.752 73.9629 608.464 73.9629C609.172 73.9629 609.528 73.9629 610.237 73.6143L610.593 75.008C609.881 75.3565 609.172 75.7047 608.464 75.7047C606.335 75.7047 605.626 74.6595 605.626 72.9177V69.4336H603.85V67.6914H605.626V65.2525H607.399V67.6914H610.237V69.0851ZM616.623 67.3432C616.976 67.3432 617.332 67.3432 618.04 67.6914L617.332 69.4336C616.976 69.4336 616.623 69.0851 616.267 69.0851C615.203 69.0851 614.494 69.7821 614.494 71.1755V75.7047H612.718V67.6914H614.494V68.7366C614.847 67.6914 615.911 67.3432 616.623 67.3432ZM629.037 74.3114C629.393 74.3114 629.393 74.3114 629.037 74.3114C629.393 74.3114 629.393 74.3114 629.746 74.6595C629.746 74.6595 629.746 74.6595 630.101 75.008V75.7047C630.101 75.7047 630.101 76.0532 629.746 76.0532C629.746 76.0532 629.746 76.0532 629.393 76.0532H629.037C628.681 76.0532 628.329 75.7047 628.329 75.7047C628.329 75.3565 628.329 75.3565 628.329 75.008C628.329 75.008 628.328 74.6595 628.681 74.6595C628.681 74.6595 628.681 74.3114 629.037 74.3114ZM629.037 75.7047C629.393 75.7047 629.393 75.7047 629.037 75.7047C629.393 75.7047 629.393 75.7047 629.393 75.3565C629.393 75.3565 629.746 75.008 629.393 74.6595C629.393 74.3114 629.037 74.3114 629.037 74.3114C629.037 74.3114 629.037 74.3114 628.681 74.3114C628.681 74.3114 628.681 74.3114 628.329 74.3114C628.329 74.3114 628.329 74.3114 627.973 74.3114C627.617 74.6595 627.617 75.008 627.973 75.008C629.037 75.7047 629.037 75.7047 629.037 75.7047ZM629.393 74.6595C629.393 75.008 629.746 75.008 629.393 74.6595C629.746 75.008 629.746 75.008 629.746 75.008C629.746 75.008 629.746 75.008 629.393 75.008L629.746 75.3565H629.393L629.037 75.008V75.3565V74.6595H629.393Z" fill="white"/>
<path d="M607.752 6.72025H580.44V53.7554H607.752V6.72025Z" fill="#7673C0"/>
<path fill-rule="evenodd" clip-rule="evenodd" d="M582.213 30.4119C582.213 21.3533 586.47 12.6431 594.274 6.72017C581.504 -3.03524 563.056 -1.64161 551.707 9.85584C540.354 21.3533 540.71 39.122 551.707 50.6195C562.704 62.1169 581.148 63.5106 594.274 53.7551C586.47 48.5291 582.213 39.8191 582.213 30.4119Z" fill="#EB001B"/>
<path d="M641.807 48.8776V47.8324H642.163V47.4839H641.098V47.8324H641.454L641.807 48.8776ZM643.936 48.8776V47.8324H643.58L643.227 48.8776L642.871 48.1806H642.515V48.8776H642.871V47.8324L643.227 48.5291H643.58L643.936 47.8324V48.8776Z" fill="#00A1DF"/>
<path fill-rule="evenodd" clip-rule="evenodd" d="M645 30.4119C645 41.9094 638.261 52.3617 627.264 57.2391C616.623 62.1169 603.498 61.0717 594.274 53.7551C601.721 48.1806 606.335 39.4706 606.335 30.0635C606.335 20.6565 602.077 12.2947 594.274 6.37176C603.85 -0.596373 616.623 -1.99001 627.264 2.8877C637.905 7.76539 645 18.9144 645 30.4119Z" fill="#00A1DF"/>
<path d="M392.195 75.6208V70.4174C392.195 68.3362 391.159 67.2955 389.088 67.2955C388.049 67.2955 387.013 67.6424 386.323 68.6832C385.634 67.6424 384.941 67.2955 383.559 67.2955C382.869 67.2955 381.834 67.6424 381.144 68.3362V67.2955H379.762V75.2739H381.144V70.7643C381.144 69.377 381.834 68.6832 383.216 68.6832C384.595 68.6832 384.941 69.377 384.941 70.7643V75.2739H386.67V70.7643C386.67 69.377 387.359 68.6832 388.741 68.6832C390.123 68.6832 390.466 69.377 390.466 70.7643V75.2739H392.195V75.6208ZM417.75 67.6424H414.989V65.2143H413.261V67.6424H411.535V69.0301H413.261V72.8458C413.261 74.58 413.953 75.6208 416.025 75.6208C416.714 75.6208 417.75 75.2739 418.097 74.927L417.75 73.5396C417.407 73.8862 416.714 73.8862 416.368 73.8862C415.679 73.8862 414.989 73.5396 414.989 72.4989V68.6832H417.75V67.6424ZM432.255 67.6424C431.219 67.6424 430.53 67.9893 430.183 68.6832V67.6424H428.458V75.6208H430.183V71.1112C430.183 69.7239 430.876 69.0301 431.912 69.0301H432.948L433.294 67.6424C432.947 67.6424 432.601 67.6424 432.255 67.6424ZM410.153 68.3362C409.464 67.6424 408.082 67.6424 407.046 67.6424C404.974 67.6424 403.935 68.6832 403.935 70.0705C403.935 71.4581 404.974 72.152 406.7 72.4989H407.389C408.425 72.4989 408.771 72.8458 408.771 73.5396C408.771 74.2331 408.082 74.58 407.046 74.58C406.01 74.58 404.974 74.2331 404.282 73.8862L403.592 75.2739C404.628 75.9677 406.01 76.3146 407.046 76.3146C409.464 76.3146 410.5 75.2739 410.5 73.8862C410.5 72.4989 409.464 71.8051 407.735 71.4581H407.046C406.353 71.4581 405.664 71.1112 405.664 70.7643C405.664 70.0705 406.353 69.7239 407.389 69.7239C408.425 69.7239 409.464 70.0705 409.807 70.4174L410.153 68.3362ZM433.983 71.8051C433.983 74.2331 435.709 75.9677 438.127 75.9677C439.162 75.9677 440.198 75.6208 440.891 74.927L440.198 73.5396C439.509 73.8862 438.819 74.2331 438.127 74.2331C436.748 74.2331 435.709 73.1927 435.709 71.4581C435.709 69.7239 436.748 68.6832 438.127 68.6832C438.819 68.6832 439.509 69.0301 440.198 69.377L440.891 67.9893C440.198 67.2955 439.162 66.9486 438.127 66.9486C435.709 67.6424 433.983 69.377 433.983 71.8051ZM422.933 67.6424C420.515 67.6424 419.132 69.377 419.132 71.8051C419.132 74.2331 420.861 75.9677 423.276 75.9677C424.311 75.9677 425.694 75.6208 426.386 74.927L425.694 73.8862C425.004 74.2331 424.311 74.58 423.276 74.58C422.24 74.58 421.204 73.8862 420.861 72.4989H426.729V71.8051C426.729 69.0301 425.35 67.6424 422.933 67.6424ZM422.933 69.0301C423.968 69.0301 425.004 69.7239 425.004 71.1112H420.861C420.861 69.7239 421.55 69.0301 422.933 69.0301ZM401.52 71.8051V67.6424H400.138V68.6832C399.446 67.9893 398.756 67.6424 397.72 67.6424C395.649 67.6424 393.92 69.377 393.92 71.8051C393.92 74.2331 395.649 75.9677 397.72 75.9677C398.756 75.9677 399.792 75.6208 400.138 74.927V75.9677H401.864V71.8051H401.52ZM395.302 71.8051C395.302 70.4174 396.338 69.0301 397.72 69.0301C399.102 69.0301 400.138 70.0705 400.138 71.8051C400.138 73.5396 399.102 74.58 397.72 74.58C396.338 74.58 395.302 73.1927 395.302 71.8051ZM456.085 67.6424C455.049 67.6424 454.36 67.9893 454.013 68.6832V67.6424H452.288V75.6208H453.67V71.1112C453.67 69.7239 454.36 69.0301 455.395 69.0301H456.431L456.778 67.6424C456.778 67.6424 456.431 67.6424 456.085 67.6424ZM449.87 71.8051V67.6424H448.142V68.6832C447.452 67.9893 446.763 67.6424 445.727 67.6424C443.652 67.6424 441.927 69.377 441.927 71.8051C441.927 74.2331 443.652 75.9677 445.727 75.9677C446.763 75.9677 447.798 75.6208 448.142 74.927V75.9677H449.87V71.8051ZM443.652 71.8051C443.652 70.4174 444.691 69.0301 446.07 69.0301C447.452 69.0301 448.488 70.0705 448.488 71.8051C448.488 73.5396 447.452 74.58 446.07 74.58C444.345 74.58 443.652 73.1927 443.652 71.8051ZM465.757 71.8051V64.5205H464.028V68.6832C463.339 67.9893 462.649 67.6424 461.613 67.6424C459.539 67.6424 457.813 69.377 457.813 71.8051C457.813 74.2331 459.539 75.9677 461.613 75.9677C462.649 75.9677 463.685 75.6208 464.028 74.927V75.9677H465.757V71.8051ZM459.539 71.8051C459.539 70.4174 460.578 69.0301 461.957 69.0301C463.339 69.0301 464.375 70.0705 464.375 71.8051C464.375 73.5396 463.339 74.58 461.957 74.58C460.231 74.58 459.539 73.1927 459.539 71.8051Z" fill="white"/>
<path d="M436.748 6.59079H408.425V54.1141H436.748V6.59079Z" fill="#FF5F00"/>
<path fill-rule="evenodd" clip-rule="evenodd" d="M411.189 30.5258C411.189 20.8131 415.679 12.141 422.586 6.59082C417.407 2.42819 411.189 0 404.282 0C388.049 0 374.926 13.5285 374.926 30.5258C374.926 47.5233 388.049 60.7048 404.282 60.7048C411.189 60.7048 417.407 58.2767 422.586 54.1141C415.679 48.5638 411.189 39.8919 411.189 30.5258Z" fill="#EB001B"/>
<path fill-rule="evenodd" clip-rule="evenodd" d="M470.246 30.5258C470.246 47.1764 457.124 60.7048 440.891 60.7048C433.983 60.7048 427.765 58.2767 422.586 54.1141C429.494 48.5638 433.983 39.8919 433.983 30.5258C433.983 21.16 429.494 12.141 422.586 6.59082C427.422 2.42819 433.983 0 440.891 0C457.124 0 470.246 13.5285 470.246 30.5258Z" fill="#F79E1B"/>
<path d="M301.847 0H187.463V73.1348H301.847V0Z" fill="white"/>
<path d="M300.135 61.4056H189.518V71.4098H300.135V61.4056Z" fill="#FAB400"/>
<path d="M300.135 2.06985H189.518V12.0742H300.135V2.06985Z" fill="#1C2F76"/>
<path d="M233.011 21.0435L222.052 47.2616H214.86L209.381 26.5631C209.038 25.1832 208.696 24.8382 207.669 24.1483C205.956 23.1133 203.559 22.4234 201.162 22.0784L201.847 21.0435H213.148C214.518 21.0435 215.888 22.0784 216.23 23.8033L218.97 38.9821L225.819 21.0435H233.011ZM260.751 38.6371C260.751 31.7377 251.162 31.3928 251.505 28.288C251.505 27.2531 252.532 26.2181 254.244 26.2181C255.272 26.2181 258.011 25.8732 260.751 27.2531L261.778 21.7334C260.066 21.0435 258.011 20.6985 255.614 20.6985C249.107 20.6985 244.313 24.1483 244.313 29.3229C244.313 33.1177 247.738 35.1874 250.134 36.5674C252.874 37.9474 253.559 38.6371 253.559 39.6721C253.559 41.3972 251.505 42.0869 249.45 42.0869C246.025 42.0869 243.97 41.0522 242.6 40.3622L241.23 46.2266C242.943 46.9166 245.682 47.6066 248.765 47.6066C255.957 47.6066 260.751 43.8119 260.751 38.6371ZM278.217 46.9166H284.381L278.902 21.0435H273.08C271.71 21.0435 270.683 21.7334 270.34 23.1133L260.409 47.2616H267.6L268.97 43.4669H277.532L278.217 46.9166ZM270.683 37.9474L274.108 28.288L276.162 37.9474H270.683ZM242.6 21.0435L237.121 47.2616H230.271L235.751 21.0435H242.6Z" fill="#1C2F76"/>
<path fill-rule="evenodd" clip-rule="evenodd" d="M251.162 54.1611H248.422V56.5758H251.505V57.2658H247.395V50.0214H251.162V50.7114H248.422V52.7811H251.162V54.1611Z" fill="#1C2F76"/>
<path fill-rule="evenodd" clip-rule="evenodd" d="M252.874 50.0214H253.902V57.6109H252.874V50.0214Z" fill="#1C2F76"/>
<path d="M255.957 55.1961C255.957 56.5761 256.641 56.9208 257.669 56.9208C258.354 56.9208 258.696 56.9208 259.039 56.5761V57.2658C258.696 57.2658 258.011 57.6109 257.326 57.6109C255.614 57.6109 254.929 56.5761 254.929 55.1961C254.929 53.8161 255.957 52.4364 257.326 52.4364C259.039 52.4364 259.381 53.8161 259.381 54.8511V55.1961H255.957ZM258.696 54.5061C258.696 53.8161 258.354 53.1264 257.326 53.1264C256.299 53.1264 255.957 53.8161 255.957 54.5061H258.696Z" fill="#1C2F76"/>
<path fill-rule="evenodd" clip-rule="evenodd" d="M264.518 57.2658C264.176 57.2658 263.833 57.6109 263.148 57.6109C261.778 57.6109 260.751 56.5762 260.751 54.8511C260.751 53.1264 261.779 52.0914 263.491 52.0914C264.176 52.0914 264.518 52.0914 264.861 52.4364L264.518 53.1264C264.176 53.1264 263.833 52.7814 263.491 52.7814C262.464 52.7814 261.779 53.8161 261.779 54.8511C261.779 55.8861 262.464 56.9208 263.491 56.9208C264.176 56.9208 264.518 56.9208 264.518 56.5762V57.2658Z" fill="#1C2F76"/>
<path fill-rule="evenodd" clip-rule="evenodd" d="M267.258 51.4014V52.7814H268.628V53.4711H267.258V56.2311C267.258 56.9208 267.6 57.2658 267.943 57.2658H268.628V57.9559H267.943C267.6 57.9559 267.258 57.9559 266.916 57.6108C266.573 57.2658 266.573 56.9208 266.573 56.2311V53.4711H265.888V52.7814H266.573V51.7464L267.258 51.4014Z" fill="#1C2F76"/>
<path fill-rule="evenodd" clip-rule="evenodd" d="M269.655 54.1611V52.4364H270.34V53.4711C270.683 52.7814 271.025 52.4364 271.71 52.4364H272.052V53.4711H271.71C271.025 53.4711 270.683 53.8161 270.34 54.5061V54.8511V57.6109H269.313V54.1611H269.655Z" fill="#1C2F76"/>
<path d="M277.875 54.8511C277.875 56.5762 276.504 57.6109 275.477 57.6109C274.108 57.6109 273.08 56.5762 273.08 54.8511C273.08 53.1264 274.108 52.0914 275.477 52.0914C276.847 52.4364 277.875 53.4711 277.875 54.8511ZM274.108 55.1961C274.108 56.2312 274.792 57.2658 275.477 57.2658C276.504 57.2658 276.847 56.5762 276.847 55.1961C276.847 54.5061 276.504 53.1264 275.477 53.1264C274.45 53.1264 274.108 54.1611 274.108 55.1961Z" fill="#1C2F76"/>
<path fill-rule="evenodd" clip-rule="evenodd" d="M279.244 53.8161V52.4364H279.929V53.1264C280.272 52.7814 280.614 52.0914 281.642 52.0914C282.327 52.0914 283.354 52.4364 283.354 54.1611V57.2658H282.327V54.5061C282.327 53.8161 281.984 53.1264 281.299 53.1264C280.614 53.1264 280.272 53.4711 279.929 54.1611V54.5061V57.6109H278.902V53.8161H279.244Z" fill="#1C2F76"/>
<path d="M114.384 0H0V73.1348H114.384V0Z" fill="white"/>
<path d="M112.672 61.0609H2.05487V71.0651H112.672V61.0609Z" fill="#FAB400"/>
<path d="M112.672 1.72488H2.05487V11.7292H112.672V1.72488Z" fill="#1C2F76"/>
<path d="M45.5862 22.7684L34.2848 50.3664H26.7505L21.271 28.288C20.9286 26.9081 20.5861 26.5631 19.5587 25.8732C17.8464 24.8382 15.1066 24.1483 12.7094 23.4583V22.7684H24.6957C26.0656 22.7684 27.4355 23.8033 27.7779 25.5282L30.8601 41.3972L38.0518 22.7684H45.5862ZM74.6961 41.3972C74.6961 34.1527 64.7643 33.8077 64.7643 30.3578C64.7643 29.3229 65.7919 28.288 67.8467 27.943C68.8739 27.943 71.6137 27.598 74.6961 29.3229L76.0658 23.4583C74.3536 22.7684 72.2988 22.0784 69.559 22.0784C62.7096 22.0784 57.5728 25.8732 57.5728 31.0478C57.5728 34.8424 60.9973 37.2574 63.7371 38.6371C66.4769 40.0171 67.5042 40.7072 67.5042 42.0869C67.5042 43.8119 65.4494 44.8469 63.3946 44.8469C59.9701 44.8469 57.915 43.8119 56.2027 43.1219L54.8329 48.9867C56.5452 49.6764 59.6275 50.3664 62.7096 50.3664C69.9015 50.7114 74.6961 46.9166 74.6961 41.3972ZM93.1891 50.3664H99.696L93.8742 22.7684H87.7098C86.3401 22.7684 85.3125 23.4583 84.6275 24.8382L74.011 50.3664H81.5455L82.9152 46.2266H91.8194L93.1891 50.3664ZM85.3125 40.3622L89.0796 30.0128L91.1344 40.3622H85.3125ZM55.518 22.7684L49.6958 50.3664H42.5039L48.3261 22.7684H55.518Z" fill="#1C2F76"/>
<path d="M14.6756 251.242L7.33778 258.413L0 251.242L7.33778 244.07L14.6756 251.242ZM32.5766 233.747L45.1554 246.119L52.4935 238.948L39.9144 226.576L32.5766 219.404L25.2388 226.576L12.5791 238.948L19.9168 246.119L32.5766 233.747ZM57.8152 244.07L50.4774 251.242L57.8152 258.413L65.1533 251.242L57.8152 244.07ZM32.5766 268.658L19.9975 256.364L12.5791 263.535L25.1581 275.829L32.4956 283L39.8337 275.829L52.4935 263.535L45.1554 256.364L32.5766 268.658ZM32.5766 258.413L39.9144 251.242L32.5766 244.07L25.2388 251.242L32.5766 258.413ZM110.228 259.122V259.043C110.228 254.394 107.648 252.03 103.535 250.454C106.116 249.035 108.212 246.828 108.212 242.888V242.81C108.212 237.293 103.697 233.747 96.4396 233.747H79.8284V268.658H96.8425C104.906 268.658 110.228 265.506 110.228 259.122ZM100.391 244.228C100.391 246.828 98.2132 247.932 94.746 247.932H87.489V240.524H95.23C98.536 240.524 100.391 241.785 100.391 244.149V244.228ZM102.406 258.176C102.406 260.777 100.31 261.959 96.8425 261.959H87.489V254.315H96.6007C100.632 254.315 102.406 255.733 102.406 258.098V258.176ZM126.678 268.658V233.747H118.856V268.658H126.678ZM168.93 268.658V233.747H161.189V255.261L144.417 233.747H137.16V268.658H144.901V246.513L162.238 268.736H168.93V268.658ZM212.473 268.658L197.152 233.511H189.895L174.574 268.658H182.558L185.864 260.856H200.942L204.248 268.658H212.473ZM198.201 254.079H188.686L193.443 242.731L198.201 254.079ZM249.888 268.658V233.747H242.147V255.261L225.375 233.747H218.118V268.658H225.859V246.513L243.195 268.736H249.888V268.658ZM290.528 263.062L285.529 258.098C282.707 260.619 280.205 262.196 276.174 262.196C270.048 262.196 265.853 257.231 265.853 251.242V251.163C265.853 245.174 270.209 240.288 276.174 240.288C279.723 240.288 282.546 241.785 285.287 244.228L290.285 238.554C286.981 235.323 282.947 233.195 276.174 233.195C265.208 233.195 257.548 241.312 257.548 251.242V251.321C257.548 261.329 265.37 269.288 275.851 269.288C282.707 269.288 286.819 266.924 290.528 263.062ZM323.99 268.658V261.801H304.639V254.473H321.493V247.616H304.639V240.524H323.749V233.668H296.818V268.579H323.99V268.658Z" fill="#F0B90B"/>
<path d="M373.785 245.453C373.785 238.343 368.584 233.768 360.348 233.768H346.406V268.575H352.621V257.387H359.643C367.424 257.387 373.785 253.31 373.785 245.453ZM367.472 245.602C367.472 249.332 364.543 251.867 359.846 251.867H352.621V239.337H359.846C364.495 239.337 367.472 241.475 367.472 245.602Z" fill="white"/>
<path d="M394.886 233.519H389.129L373.569 268.575H379.934L383.572 260.172H400.291L403.878 268.575H410.446L394.886 233.519ZM398.019 254.752H385.843L391.906 240.829L398.019 254.752Z" fill="white"/>
<path d="M427.606 254.702L441.65 233.768H434.527L424.524 249.182L414.624 233.768H407.3L421.344 254.851V268.575H427.606V254.702Z" fill="white"/>
</g>
<defs>
<linearGradient id="paint0_linear_0_3" x1="606.53" y1="148.036" x2="626.004" y2="148.036" gradientUnits="userSpaceOnUse">
<stop stop-color="#007940"/>
<stop offset="0.2285" stop-color="#00873F"/>
<stop offset="0.7433" stop-color="#40A737"/>
<stop offset="1" stop-color="#5CB531"/>
</linearGradient>
<linearGradient id="paint1_linear_0_3" x1="606.53" y1="145.031" x2="626.004" y2="145.031" gradientUnits="userSpaceOnUse">
<stop stop-color="#007940"/>
<stop offset="0.2285" stop-color="#00873F"/>
<stop offset="0.7433" stop-color="#40A737"/>
<stop offset="1" stop-color="#5CB531"/>
</linearGradient>
<linearGradient id="paint2_linear_0_3" x1="606.53" y1="141.762" x2="626.004" y2="141.762" gradientUnits="userSpaceOnUse">
<stop stop-color="#007940"/>
<stop offset="0.2285" stop-color="#00873F"/>
<stop offset="0.7433" stop-color="#40A737"/>
<stop offset="1" stop-color="#5CB531"/>
</linearGradient>
<linearGradient id="paint3_linear_0_3" x1="562.934" y1="145.031" x2="582.709" y2="145.031" gradientUnits="userSpaceOnUse">
<stop stop-color="#1F286F"/>
<stop offset="0.4751" stop-color="#004E94"/>
<stop offset="0.8261" stop-color="#0066B1"/>
<stop offset="1" stop-color="#006FBC"/>
</linearGradient>
<linearGradient id="paint4_linear_0_3" x1="584.628" y1="145.031" x2="603.835" y2="145.031" gradientUnits="userSpaceOnUse">
<stop stop-color="#6C2C2F"/>
<stop offset="0.1735" stop-color="#882730"/>
<stop offset="0.5731" stop-color="#BE1833"/>
<stop offset="0.8585" stop-color="#DC0436"/>
<stop offset="1" stop-color="#E60039"/>
</linearGradient>
<clipPath id="clip0_0_3">
<rect width="645" height="283" fill="white"/>
</clipPath>
</defs>
</svg>
