<svg width="44" height="50" viewBox="0 0 44 50" fill="none" xmlns="http://www.w3.org/2000/svg">
    <path d="M44 37.5201V12.5201L33.6423 6.62119V10.8347L40.2892 14.6469V35.3933L37.3531 37.0787V20.2247H33.6423V39.2055L30.6247 40.8909V15.4896H26.9138V43.0177L23.8962 44.7432V5.29695L30.6247 9.14928V4.89567L22.0204 0L13.4569 4.89567V9.10915L20.1854 5.29695V44.7432L17.1677 43.0177V15.4896H13.4569V40.931L10.4393 39.2055V20.2247H6.72845V37.1188L3.71085 35.3933V14.6469L3.91474 14.5265L10.4393 10.8347V6.58106L0 12.5201V37.5201L22.0204 50L44 37.5201Z" fill="#A0002A"/>
</svg>
